HIERARCHY
ROOT Hips
{
  OFFSET 64.0973 96.6674 -13.0359
  CHANNELS 6 Xposition Yposition Zposition Zrotation Xrotation Yrotation
  JOINT spine
  {
    OFFSET 0 7.96568 0.458067
    CHANNELS 3 Zrotation Xrotation Yrotation
    JOINT spine1
    {
      OFFSET 0 10.2431 0
      CHANNELS 3 Zrotation Xrotation Yrotation
      JOINT spine2
      {
        OFFSET 0 9.81475 0
        CHANNELS 3 Zrotation Xrotation Yrotation
        JOINT Neck
        {
          OFFSET 0 25.1986 1.20138
          CHANNELS 3 Zrotation Xrotation Yrotation
          JOINT Head
          {
            OFFSET 0 7.61315 0
            CHANNELS 3 Zrotation Xrotation Yrotation
            End Site
            {
              OFFSET 0 18.4281 -6.07733
            }
          }
        }
        JOINT RightShoulder
        {
          OFFSET -4.1327 10.5992 -0.575451
          CHANNELS 3 Zrotation Xrotation Yrotation
          JOINT RightArm
          {
            OFFSET 0 13.9018 0
            CHANNELS 3 Zrotation Xrotation Yrotation
            JOINT RightArmRoll
            {
              OFFSET 0 7.01789 0
              CHANNELS 3 Zrotation Xrotation Yrotation
              JOINT RightForeArm
              {
                OFFSET 0 20.4406 0
                CHANNELS 3 Zrotation Xrotation Yrotation
                JOINT RightForeArmRoll
                {
                  OFFSET 0 7.87516 0
                  CHANNELS 3 Zrotation Xrotation Yrotation
                  JOINT RightHand
                  {
                    OFFSET 0 15.8037 0
                    CHANNELS 3 Zrotation Xrotation Yrotation
                    End Site
                    {
                      OFFSET 0 0 0
                    }
                  }
                }
              }
            }
          }
        }
        JOINT LeftShoulder
        {
          OFFSET 4.1327 10.5992 -0.575451
          CHANNELS 3 Zrotation Xrotation Yrotation
          JOINT LeftArm
          {
            OFFSET 0 13.9018 0
            CHANNELS 3 Zrotation Xrotation Yrotation
            JOINT LeftArmRoll
            {
              OFFSET 0 7.01788 0
              CHANNELS 3 Zrotation Xrotation Yrotation
              JOINT LeftForeArm
              {
                OFFSET 0 20.4406 0
                CHANNELS 3 Zrotation Xrotation Yrotation
                JOINT LeftForeArmRoll
                {
                  OFFSET 0 7.87515 0
                  CHANNELS 3 Zrotation Xrotation Yrotation
                  JOINT LeftHand
                  {
                    OFFSET 0 15.8037 0
                    CHANNELS 3 Zrotation Xrotation Yrotation
                    End Site
                    {
                      OFFSET 0 0 0
                    }
                  }
                }
              }
            }
          }
        }
      }
    }
  }
  JOINT RightUpLeg
  {
    OFFSET -7.06048 -1.2947 -1.0861
    CHANNELS 3 Zrotation Xrotation Yrotation
    JOINT RightUpLegRoll
    {
      OFFSET 0 18.5308 0
      CHANNELS 3 Zrotation Xrotation Yrotation
      JOINT RightLeg
      {
        OFFSET 0 -22.9476 0
        CHANNELS 3 Zrotation Xrotation Yrotation
        JOINT RightLegRoll
        {
          OFFSET 0 23.0226 0
          CHANNELS 3 Zrotation Xrotation Yrotation
          JOINT RightFoot
          {
            OFFSET 0 19.1625 0
            CHANNELS 3 Zrotation Xrotation Yrotation
            JOINT RightToeBase
            {
              OFFSET 0 16.0188 0
              CHANNELS 3 Zrotation Xrotation Yrotation
              End Site
              {
                OFFSET 0.00678979 7.75782 -0.894207
              }
            }
          }
        }
      }
    }
  }
  JOINT LeftUpLeg
  {
    OFFSET 7.06048 -1.2947 -1.0861
    CHANNELS 3 Zrotation Xrotation Yrotation
    JOINT LeftUpLegRoll
    {
      OFFSET 0 18.5309 0
      CHANNELS 3 Zrotation Xrotation Yrotation
      JOINT LeftLeg
      {
        OFFSET 0 22.9475 0
        CHANNELS 3 Zrotation Xrotation Yrotation
        JOINT LeftLegRoll
        {
          OFFSET 0 23.2355 0
          CHANNELS 3 Zrotation Xrotation Yrotation
          JOINT LeftFoot
          {
            OFFSET 0 18.9496 0
            CHANNELS 3 Zrotation Xrotation Yrotation
            JOINT LeftToeBase
            {
              OFFSET 0 16.0188 0
              CHANNELS 3 Zrotation Xrotation Yrotation
              End Site
              {
                OFFSET -0.0304289 7.75781 -0.894207
              }
            }
          }
        }
      }
    }
  }
}
MOTION
Frames: 5
Frame Time: 0.00208333
52.3901 96.7194 1.79681 -1.12602 -3.29054 4.48376 0.311809 -0.652233 -0.320531 0.605259 2.69652 -0.675662 0.613917 4.34148 -0.686293 -1.59986 11.0754 -3.18164 7.52448 21.7339 -4.3945 79.0885 -5.00214 -4.29227 92.1203 22.3384 7.26686 -8.2689e-006 -1.5486e-006 -1.58051e-006 10.7955 15.4789 -2.40387 -5.06092e-006 -5.55048e-006 -3 8.02892 -4.95144 0.697687 -60.7145 -1.96487 1.4122 -112.891 21.2361 4.14402 -5.86734e-006 2.28356e-007 1.082e-006 -10.1338 9.2521 1.55943 6.56873e-006 -5.26351e-007 2.99999 -8.02895 -4.95142 -0.697659 177.141 -1.08132 2.66063 180 7.0152e-015 178.812 178.724 6.42437 179.598 1.84783e-006 -3.52178e-006 0.0691816 -18.5752 67.6785 19.2715 8.1243 25.2333 -3.48254 -173.605 -4.89815 -3.65348 4.5067e-006 -1.99009e-005 -1.24815 -3.54306 -5.44226 -0.0448651 -3.51277e-006 -2.08759e-006 -0.068931 18.3885 67.5015 -19.1213 -8.12978 25.233 3.48487 
52.4012 96.7202 1.79499 -1.12558 -3.27618 4.47817 0.31251 -0.648084 -0.322293 0.608337 2.7048 -0.679471 0.617055 4.34976 -0.690165 -1.60615 11.0399 -3.17735 7.51584 21.7375 -4.39071 79.0772 -5.00109 -4.29124 92.1237 22.3299 7.26145 -8.2689e-006 -1.5486e-006 -1.58051e-006 10.7979 15.5017 -2.40693 -5.06092e-006 -5.55048e-006 -3 8.02892 -4.95144 0.697687 -60.7091 -1.96433 1.41134 -112.883 21.2209 4.13067 -5.86734e-006 2.28356e-007 1.082e-006 -10.1332 9.2314 1.55698 6.56873e-006 -5.26351e-007 2.99999 -8.02895 -4.95142 -0.697659 177.142 -1.04756 2.65146 180 7.0152e-015 178.812 178.733 6.45095 179.596 1.84783e-006 -3.52178e-006 0.0691269 -18.5746 67.6778 19.2709 8.1243 25.2333 -3.48254 -173.607 -4.86764 -3.65305 4.5067e-006 -1.99009e-005 -1.24807 -3.5449 -5.46648 -0.0456518 -3.51277e-006 -2.08759e-006 -0.0691226 18.3888 67.5018 -19.1215 -8.12978 25.233 3.48487 
52.3943 96.718 1.78653 -1.12519 -3.26167 4.47284 0.313158 -0.644044 -0.324114 0.611391 2.71286 -0.683399 0.620172 4.35782 -0.694155 -1.6122 11.0047 -3.17306 7.50711 21.7411 -4.38685 79.0658 -4.99988 -4.29014 92.1277 22.3213 7.25656 -8.2689e-006 -1.5486e-006 -1.58051e-006 10.7998 15.5244 -2.40993 -5.06092e-006 -5.55048e-006 -3 8.02892 -4.95144 0.697687 -60.7037 -1.96367 1.41042 -112.874 21.2057 4.11746 -5.86734e-006 2.28356e-007 1.082e-006 -10.133 9.21029 1.55447 6.56873e-006 -5.26351e-007 2.99999 -8.02895 -4.95142 -0.697659 177.144 -1.01396 2.64244 180 7.0152e-015 178.812 178.742 6.47687 179.595 1.84783e-006 -3.52178e-006 0.0690455 -18.574 67.6769 19.2701 8.1243 25.2333 -3.48254 -173.61 -4.83698 -3.6526 4.5067e-006 -1.99009e-005 -1.24799 -3.5467 -5.49056 -0.0464649 -3.51277e-006 -2.08759e-006 -0.0693035 18.3891 67.5022 -19.1219 -8.12978 25.233 3.48487 
52.3977 96.7202 1.78055 -1.12484 -3.24705 4.46769 0.31377 -0.640082 -0.325977 0.614429 2.72076 -0.687409 0.623275 4.36572 -0.698228 -1.61807 10.9696 -3.16878 7.49831 21.7446 -4.38295 79.0544 -4.99856 -4.289 92.1321 22.3124 7.25205 -8.2689e-006 -1.5486e-006 -1.58051e-006 10.8013 15.5471 -2.41289 -5.06092e-006 -5.55048e-006 -3 8.02892 -4.95144 0.697687 -60.6983 -1.96292 1.40944 -112.865 21.1904 4.10437 -5.86734e-006 2.28356e-007 1.082e-006 -10.133 9.18887 1.55192 6.56873e-006 -5.26351e-007 2.99999 -8.02895 -4.95142 -0.697659 177.146 -0.980473 2.63354 180 7.0152e-015 178.812 178.751 6.50236 179.593 1.84783e-006 -3.52178e-006 0.0689453 -18.5732 67.676 19.2693 8.1243 25.2333 -3.48254 -173.612 -4.80622 -3.65212 4.5067e-006 -1.99009e-005 -1.24793 -3.54848 -5.51454 -0.0472966 -3.51277e-006 -2.08759e-006 -0.0694768 18.3894 67.5025 -19.1222 -8.12978 25.233 3.48487 
52.3942 96.7197 1.79463 -1.1245 -3.23238 4.46263 0.314362 -0.636164 -0.327863 0.617458 2.72858 -0.691467 0.626369 4.37354 -0.702349 -1.62383 10.9346 -3.16451 7.48948 21.7482 -4.37902 79.0429 -4.99718 -4.28783 92.1367 22.3035 7.24775 -8.2689e-006 -1.5486e-006 -1.58051e-006 10.8026 15.5698 -2.41582 -5.06092e-006 -5.55048e-006 -3 8.02892 -4.95144 0.697687 -60.693 -1.96213 1.40844 -112.855 21.1752 4.09134 -5.86734e-006 2.28356e-007 1.082e-006 -10.1331 9.16729 1.54934 6.56873e-006 -5.26351e-007 2.99999 -8.02895 -4.95142 -0.697659 177.148 -0.947055 2.62471 180 7.0152e-015 178.812 178.76 6.52761 179.592 1.84783e-006 -3.52178e-006 0.0688345 -18.5724 67.675 19.2685 8.1243 25.2333 -3.48254 -173.614 -4.7754 -3.65164 4.5067e-006 -1.99009e-005 -1.24787 -3.55025 -5.53847 -0.0481389 -3.51277e-006 -2.08759e-006 -0.0696458 18.3897 67.5029 -19.1225 -8.12978 25.233 3.48487 
